<?xml version="1.0" standalone="no"?>
<svg
  width="600"
  height="600"
  viewBox="0 0 600 600"
  xmlns="http://www.w3.org/2000/svg"
>
  <g transform="translate(300,300)">
    <path d="M66.6,-94.5C98.3,-83.3,144.2,-85.1,142.6,-70.5C140.9,-55.8,91.7,-24.9,89,14.7C86.3,54.3,130.1,102.5,127.8,117.9C125.6,133.4,77.3,116.1,40.6,117.2C3.9,118.3,-21.1,137.8,-38.6,132.3C-56,126.7,-65.8,96.1,-89.1,74.3C-112.4,52.6,-149.2,39.7,-162.7,16.8C-176.2,-6,-166.3,-38.7,-146,-59.9C-125.7,-81,-95,-90.6,-69,-104.3C-42.9,-118.1,-21.4,-136,-2,-133C17.5,-129.9,35,-105.7,66.6,-94.5Z" fill="#FFEAED" />
  </g>
</svg>
  